<?xml version="1.0" encoding="UTF-8" standalone="no"?>
<!-- Created with Inkscape (http://www.inkscape.org/) -->

<svg
   xmlns:dc="http://purl.org/dc/elements/1.1/"
   xmlns:cc="http://creativecommons.org/ns#"
   xmlns:rdf="http://www.w3.org/1999/02/22-rdf-syntax-ns#"
   xmlns:svg="http://www.w3.org/2000/svg"
   xmlns="http://www.w3.org/2000/svg"
   xmlns:sodipodi="http://sodipodi.sourceforge.net/DTD/sodipodi-0.dtd"
   xmlns:inkscape="http://www.inkscape.org/namespaces/inkscape"
   width="237.85011mm"
   height="40.293499mm"
   viewBox="0 0 842.77599 142.77224"
   id="svg2"
   version="1.1"
   inkscape:version="0.91 r13725"
   sodipodi:docname="titleimage.svg">
  <defs
     id="defs4" />
  <sodipodi:namedview
     id="base"
     pagecolor="#ffffff"
     bordercolor="#666666"
     borderopacity="1.0"
     inkscape:pageopacity="0.0"
     inkscape:pageshadow="2"
     inkscape:zoom="11.2"
     inkscape:cx="485.80049"
     inkscape:cy="38.571964"
     inkscape:document-units="px"
     inkscape:current-layer="layer1"
     showgrid="true"
     showguides="false"
     fit-margin-top="0"
     fit-margin-left="0"
     fit-margin-right="0"
     fit-margin-bottom="0"
     inkscape:window-width="1855"
     inkscape:window-height="1056"
     inkscape:window-x="65"
     inkscape:window-y="24"
     inkscape:window-maximized="1" />
  <metadata
     id="metadata7">
    <rdf:RDF>
      <cc:Work
         rdf:about="">
        <dc:format>image/svg+xml</dc:format>
        <dc:type
           rdf:resource="http://purl.org/dc/dcmitype/StillImage" />
        <dc:title />
      </cc:Work>
    </rdf:RDF>
  </metadata>
  <g
     inkscape:label="Layer 1"
     inkscape:groupmode="layer"
     id="layer1"
     transform="translate(-19.933923,-92.265145)">
    <g
       id="g6163">
      <path
         sodipodi:nodetypes="cssccccsc"
         inkscape:connector-curvature="0"
         id="path4138"
         d="m 19.976656,200.26216 c 0,0 19.782904,0.3382 29.666622,0.17312 10.365446,-0.17312 4.669107,-5.36692 15.369455,-5.36692 10.008017,10e-6 5.004008,5.1938 17.1566,5.02067 l 17.871457,-33.75964 10.00802,33.93277 29.46776,0 c 0,0 15.53985,-4.90594 24.51456,-4.72512 7.45309,0.15015 26.08182,4.72512 26.08182,4.72512 l 55.04409,0"
         style="fill:none;fill-rule:evenodd;stroke:#000000;stroke-width:5;stroke-linecap:butt;stroke-linejoin:miter;stroke-miterlimit:4;stroke-dasharray:none;stroke-opacity:1" />
      <path
         sodipodi:nodetypes="cssccccsc"
         inkscape:connector-curvature="0"
         id="path4138-3"
         d="m 245.15704,200.26216 c 0,0 19.78291,0.3382 29.66662,0.17312 10.36545,-0.17312 4.6691,-5.36692 15.36946,-5.36692 10.00801,10e-6 5.004,5.1938 17.1566,5.02067 l 17.87145,-33.75964 10.00802,33.93277 29.46777,0 c 0,0 15.53985,-4.90594 24.51455,-4.72512 7.45309,0.15015 26.08182,4.72512 26.08182,4.72512 l 55.04409,0"
         style="fill:none;fill-rule:evenodd;stroke:#000000;stroke-width:5;stroke-linecap:butt;stroke-linejoin:miter;stroke-miterlimit:4;stroke-dasharray:none;stroke-opacity:1" />
      <path
         sodipodi:nodetypes="cssssscc"
         inkscape:connector-curvature="0"
         id="path4155"
         d="m 467.92671,201.69073 c 0,0 17.42274,-47.48019 22.42675,-35.36134 8.60524,20.84041 8.5783,75.13684 13.58231,63.018 8.60524,-20.84042 21.66478,-54.59192 26.44975,-63.018 10.04214,-17.68369 2.85943,85.87068 17.87146,61.63299 12.78924,-20.6489 11.43773,-46.74412 21.44575,-61.28674 13.87553,-20.1625 9.29316,81.71565 19.30118,62.32549 l 11.43773,-28.73897"
         style="fill:none;fill-rule:evenodd;stroke:#000000;stroke-width:5;stroke-linecap:butt;stroke-linejoin:miter;stroke-miterlimit:4;stroke-dasharray:none;stroke-opacity:1" />
      <path
         sodipodi:nodetypes="csssssc"
         inkscape:connector-curvature="0"
         id="path4155-6"
         d="m 600.17358,200.99794 c 0,0 15.01202,-46.05162 20.01603,-33.93277 8.60524,20.84042 8.5783,75.13684 13.58231,63.018 8.60524,-20.84042 21.66479,-54.59191 26.44976,-63.018 10.04213,-17.68368 2.85943,85.87068 17.87146,61.63299 12.78924,-20.64889 11.43773,-46.74412 21.44574,-61.28674 13.87554,-20.16249 9.29317,81.71564 19.30119,62.32549 l 11.43773,-28.73897"
         style="fill:none;fill-rule:evenodd;stroke:#000000;stroke-width:5;stroke-linecap:butt;stroke-linejoin:miter;stroke-miterlimit:4;stroke-dasharray:none;stroke-opacity:1" />
      <path
         sodipodi:nodetypes="csssssc"
         inkscape:connector-curvature="0"
         id="path4155-6-7"
         d="m 730.2829,201.16957 c 0,0 15.01203,-46.05161 20.01604,-33.93277 8.60524,20.84042 8.5783,75.13684 13.58231,63.01799 8.60524,-20.8404 21.66478,-54.5919 26.44975,-63.01799 10.04214,-17.68368 2.85944,85.87068 17.87146,61.63298 12.78925,-20.64888 11.43773,-46.74411 21.44575,-61.28672 13.87553,-20.1625 9.29316,81.71563 19.30118,62.32548 l 11.43773,-28.73897"
         style="fill:none;fill-rule:evenodd;stroke:#000000;stroke-width:5;stroke-linecap:butt;stroke-linejoin:miter;stroke-miterlimit:4;stroke-dasharray:none;stroke-opacity:1" />
      <g
         id="flowRoot6061"
         style="font-style:normal;font-weight:normal;font-size:62.5px;line-height:125%;font-family:Sans;letter-spacing:0px;word-spacing:0px;fill:#000000;fill-opacity:1;stroke:none;stroke-width:1px;stroke-linecap:butt;stroke-linejoin:miter;stroke-opacity:1"
         transform="translate(22.964381,188.02008)">
        <path
           id="path6141"
           style=""
           d="m 246.62598,-87.75933 -8.36182,22.674561 16.75415,0 -8.39233,-22.674561 z m -3.47901,-6.072998 6.98853,0 17.3645,45.562744 -6.40869,0 -4.15039,-11.688232 -20.53833,0 -4.15039,11.688232 -6.50025,0 17.39502,-45.562744 z" />
        <path
           id="path6143"
           style=""
           d="m 293.68408,-77.200248 q -0.94604,-0.549316 -2.07519,-0.793457 -1.09864,-0.274658 -2.44141,-0.274658 -4.76074,0 -7.32422,3.112793 -2.53296,3.082275 -2.53296,8.880615 l 0,18.005371 -5.64575,0 0,-34.179687 5.64575,0 0,5.310058 q 1.77002,-3.112793 4.60816,-4.608154 2.83813,-1.525879 6.89697,-1.525879 0.57983,0 1.28174,0.09155 0.7019,0.06103 1.55639,0.213623 l 0.0305,5.767822 z" />
        <path
           id="path6145"
           style=""
           d="m 318.34229,-77.200248 q -0.94605,-0.549316 -2.0752,-0.793457 -1.09863,-0.274658 -2.44141,-0.274658 -4.76074,0 -7.32422,3.112793 -2.53295,3.082275 -2.53295,8.880615 l 0,18.005371 -5.64576,0 0,-34.179687 5.64576,0 0,5.310058 q 1.77002,-3.112793 4.60815,-4.608154 2.83813,-1.525879 6.89697,-1.525879 0.57984,0 1.28174,0.09155 0.70191,0.06103 1.5564,0.213623 l 0.0305,5.767822 z" />
        <path
           id="path6147"
           style=""
           d="m 351.60645,-68.899466 0,20.629882 -5.61524,0 0,-20.446777 q 0,-4.852295 -1.89209,-7.263184 -1.89209,-2.410888 -5.67627,-2.410888 -4.54712,0 -7.17163,2.89917 -2.62451,2.89917 -2.62451,7.904052 l 0,19.317627 -5.64575,0 0,-47.485351 5.64575,0 0,18.615722 q 2.01416,-3.082275 4.73022,-4.608154 2.74659,-1.525879 6.31714,-1.525879 5.88989,0 8.91114,3.66211 3.02124,3.631591 3.02124,10.71167 z" />
        <path
           id="path6149"
           style=""
           d="m 377.08862,-45.095756 q -2.38037,6.103516 -4.63867,7.965088 -2.2583,1.861573 -6.04248,1.861573 l -4.48608,0 0,-4.699707 3.2959,0 q 2.31933,0 3.60107,-1.098633 1.28174,-1.098633 2.83813,-5.187989 l 1.00708,-2.563476 -13.82446,-33.630371 5.95093,0 10.68115,26.733398 10.68115,-26.733398 5.95093,0 -15.01465,37.353515 z" />
        <path
           id="path6151"
           style=""
           d="m 405.40894,-92.153861 0,9.70459 11.56616,0 0,4.364013 -11.56616,0 0,18.554688 q 0,4.180908 1.12915,5.371094 1.15966,1.190185 4.66919,1.190185 l 5.76782,0 0,4.699707 -5.76782,0 q -6.50025,0 -8.97217,-2.410888 -2.47193,-2.441407 -2.47193,-8.850098 l 0,-18.554688 -4.11987,0 0,-4.364013 4.11987,0 0,-9.70459 5.64576,0 z" />
        <path
           id="path6153"
           style=""
           d="m 452.80273,-68.899466 0,20.629882 -5.61523,0 0,-20.446777 q 0,-4.852295 -1.89209,-7.263184 -1.89209,-2.410888 -5.67627,-2.410888 -4.54712,0 -7.17163,2.89917 -2.62451,2.89917 -2.62451,7.904052 l 0,19.317627 -5.64575,0 0,-47.485351 5.64575,0 0,18.615722 q 2.01416,-3.082275 4.73022,-4.608154 2.74658,-1.525879 6.31714,-1.525879 5.88989,0 8.91113,3.66211 3.02124,3.631591 3.02124,10.71167 z" />
        <path
           id="path6155"
           style=""
           d="m 490.67505,-75.887992 q 2.10571,-3.78418 5.0354,-5.584717 2.92969,-1.800537 6.89697,-1.800537 5.34058,0 8.23975,3.753662 2.89917,3.723145 2.89917,10.620118 l 0,20.629882 -5.64575,0 0,-20.446777 q 0,-4.91333 -1.73951,-7.293701 -1.7395,-2.380371 -5.31005,-2.380371 -4.36402,0 -6.89698,2.89917 -2.53296,2.89917 -2.53296,7.904052 l 0,19.317627 -5.64575,0 0,-20.446777 q 0,-4.943848 -1.7395,-7.293701 -1.7395,-2.380371 -5.37109,-2.380371 -4.30298,0 -6.83594,2.929687 -2.53296,2.89917 -2.53296,7.873535 l 0,19.317627 -5.64575,0 0,-34.179687 5.64575,0 0,5.310058 q 1.92261,-3.14331 4.60815,-4.638671 2.68555,-1.495362 6.37818,-1.495362 3.72314,0 6.31714,1.89209 2.62451,1.89209 3.87573,5.493164 z" />
        <path
           id="path6157"
           style=""
           d="m 524.97681,-82.449271 5.61523,0 0,34.179687 -5.61523,0 0,-34.179687 z m 0,-13.305664 5.61523,0 0,7.110595 -5.61523,0 0,-7.110595 z" />
        <path
           id="path6159"
           style=""
           d="m 557.84424,-65.45098 q -6.80542,0 -9.42993,1.556396 -2.62452,1.556397 -2.62452,5.310059 0,2.990723 1.95313,4.760742 1.98364,1.739502 5.37109,1.739502 4.66919,0 7.47681,-3.295898 2.83814,-3.326416 2.83814,-8.81958 l 0,-1.251221 -5.58472,0 z m 11.19995,-2.319336 0,19.500732 -5.61523,0 0,-5.187988 q -1.92261,3.112793 -4.79126,4.608154 -2.86866,1.464844 -7.01905,1.464844 -5.24902,0 -8.36181,-2.929687 -3.08228,-2.960205 -3.08228,-7.904053 0,-5.767822 3.84522,-8.69751 3.87573,-2.929687 11.53564,-2.929687 l 7.87354,0 0,-0.549317 q 0,-3.875732 -2.56348,-5.981445 -2.53296,-2.136231 -7.14111,-2.136231 -2.92969,0 -5.70679,0.701905 -2.7771,0.701904 -5.34058,2.105713 l 0,-5.187989 q 3.08228,-1.190185 5.98145,-1.770019 2.89917,-0.610352 5.64575,-0.610352 7.41577,0 11.07788,3.845215 3.66211,3.845215 3.66211,11.657715 z" />
        <path
           id="path6161"
           style=""
           d="m 602.43042,-81.442191 0,5.310058 q -2.38037,-1.220703 -4.94385,-1.831054 -2.56347,-0.610352 -5.31006,-0.610352 -4.1809,0 -6.28662,1.281739 -2.07519,1.281738 -2.07519,3.845214 0,1.953125 1.49536,3.082276 1.49536,1.098633 6.01196,2.105713 l 1.92261,0.427246 q 5.98144,1.281738 8.48389,3.631592 2.53295,2.319335 2.53295,6.500244 0,4.760742 -3.78418,7.537841 -3.75366,2.7771 -10.34545,2.7771 -2.74659,0 -5.73731,-0.549316 -2.9602,-0.518799 -6.2561,-1.586914 l 0,-5.79834 q 3.11279,1.617431 6.13403,2.441406 3.02124,0.793457 5.98145,0.793457 3.96728,0 6.10351,-1.342773 2.13623,-1.373291 2.13623,-3.845215 0,-2.288819 -1.55639,-3.509522 -1.52588,-1.220703 -6.74439,-2.349853 l -1.95312,-0.457764 q -5.21851,-1.098633 -7.53785,-3.356933 -2.31933,-2.288819 -2.31933,-6.256104 0,-4.821777 3.41797,-7.446289 3.41797,-2.624512 9.70459,-2.624512 3.11279,0 5.85937,0.457764 2.74658,0.457764 5.06592,1.373291 z" />
      </g>
    </g>
  </g>
</svg>
