<svg id="Layer_1" data-name="Layer 1" xmlns="http://www.w3.org/2000/svg" xmlns:xlink="http://www.w3.org/1999/xlink" viewBox="0 0 669.25 396.59"><defs><style>.cls-1{fill:url(#linear-gradient);}</style><linearGradient id="linear-gradient" x1="96.79" y1="198.3" x2="572.46" y2="198.3" gradientUnits="userSpaceOnUse"><stop offset="0" stop-color="#e65627"/><stop offset="1" stop-color="#be1f40"/></linearGradient></defs><title>CEMRG_logo</title><path class="cls-1" d="M141.69,203.83a39.55,39.55,0,0,1,26.71,11,2.2,2.2,0,0,1,.12,3.32l-9.26,9.62a2.08,2.08,0,0,1-3,0,24.26,24.26,0,0,0-16-6.06c-13.42,0-23.28,11.17-23.28,24.47s10,24.1,23.4,24.1a25.13,25.13,0,0,0,15.91-5.7,2.35,2.35,0,0,1,3.09.12l9.26,9.86a2.38,2.38,0,0,1-.12,3.21,40.78,40.78,0,0,1-28.86,11.51A42.64,42.64,0,0,1,97.6,238.18C101.52,217.38,120.53,203.05,141.69,203.83Zm35.13,3.41a2.26,2.26,0,0,1,2.26-2.26h49.16a2.26,2.26,0,0,1,2.26,2.26v12.94a2.26,2.26,0,0,1-2.26,2.26H195.37a0,0,0,0,0,0,0v14.68a0,0,0,0,0,0,0h27a2.29,2.29,0,0,1,2.28,2.28v12.92a2.26,2.26,0,0,1-2.26,2.26h-27l0,0v16l0,0h32.87a2.26,2.26,0,0,1,2.26,2.25v13a2.25,2.25,0,0,1-2.26,2.25H179.08a2.25,2.25,0,0,1-2.26-2.25Zm71.84-1.55a2.27,2.27,0,0,1,2.14-1.9h1.9a2.65,2.65,0,0,1,2,1.19l27.55,51.3h.24L310.06,205a2.61,2.61,0,0,1,2-1.19H314a2.27,2.27,0,0,1,2.14,1.9l13.42,79.8a2.17,2.17,0,0,1-2.26,2.61h-14a2.4,2.4,0,0,1-2.25-1.89l-5.35-36.7h-.24L285.47,288a2.76,2.76,0,0,1-2,1.3h-2.14a2.59,2.59,0,0,1-2-1.3l-20.07-38.48H259l-5.22,36.7a2.31,2.31,0,0,1-2.26,1.89h-14a2.18,2.18,0,0,1-2.26-2.61Zm274.06-79.14a25.23,25.23,0,0,0-3-11.75,33.51,33.51,0,0,0-8.32-10.1,48.55,48.55,0,0,0-26.5-10.58,51.57,51.57,0,0,0-15.2.89,43.14,43.14,0,0,0-14.3,5.82,34.91,34.91,0,0,0-10.92,11,27.73,27.73,0,0,0,0,29.54,34.7,34.7,0,0,0,10.93,10.94,43,43,0,0,0,14.3,5.81,51.85,51.85,0,0,0,15.19.88,48.65,48.65,0,0,0,26.48-10.57,33.56,33.56,0,0,0,8.32-10.08A25.14,25.14,0,0,0,522.72,126.55ZM426.31,63c.31,0,.62.08.92.12l2.07.34c3.81.58,7.63,1.15,11.45,1.68l1.54.22c.56.07,1.13.21,1.7.34a17.15,17.15,0,0,1,3.28,1.12,21.18,21.18,0,0,1,5.62,3.68,31.1,31.1,0,0,1,7.17,10.21,47.72,47.72,0,0,1,3.18,9.73.43.43,0,0,0,.54.32c1.31-.39,2.64-.73,4-1a60.29,60.29,0,0,1,17.74-1,56.69,56.69,0,0,1,31,12.35,39.07,39.07,0,0,1,9.71,11.79,28.79,28.79,0,0,1,0,27.44,37.67,37.67,0,0,1-6.62,8.93.42.42,0,0,0,0,.57c2.58,2.95,5.74,6.31,8.45,9,1.44,1.43,2.92,2.8,4.43,4.06.76.63,1.53,1.22,2.3,1.74a11.94,11.94,0,0,0,1.29.78,4,4,0,0,0,.66.31,1.86,1.86,0,0,0,.78,0,.9.9,0,0,0,.58-.23c.23-.26.21-.73.31-1a5,5,0,0,1,.65-1.26c3-4.36,6.78-8.32,9.16-13.11,3.74-7.53,0-16.47,3.4-23.68,3.31-7,16-11.45,9-20.74-2.77-3.69-6.69-6.18-9.42-9.86-6.07-8.19-10.84-14.77-19.15-21-12.26-9.12-25.67-16.5-39.12-23.68-9.88-5.27-22.16-6-33.31-5.66-5.81.18-12.13,0-17.43,2.74C437,50.62,432.51,55.24,429,59.42l-.07.08a22.06,22.06,0,0,1-2.85,2.83c-.09.08-.53.37-.31.51A1.15,1.15,0,0,0,426.31,63Zm-84.38,91a90.17,90.17,0,0,1,12,6.71l1.41.94,1.34.9c.85.56,1.67,1.15,2.54,1.68,1.71,1.09,3.45,2.14,5.23,3.13a117.53,117.53,0,0,0,22.66,9.57c4,1.22,8,2.24,12.08,3.09a53.49,53.49,0,0,0,11.95,1.27,30.05,30.05,0,0,0,11.36-2.16,22.36,22.36,0,0,0,4.92-2.89,34.17,34.17,0,0,0,4.29-4.15,103.45,103.45,0,0,0,7.47-10.15c1.8-2.67,3.62-5.37,5.65-8a1.71,1.71,0,0,0-.14-2.3,38.52,38.52,0,0,1-6.41-7.82,32.38,32.38,0,0,1,0-34.49,40.86,40.86,0,0,1,12.75-12.79,48.93,48.93,0,0,1,9.39-4.67.92.92,0,0,0,.55-1.21,45.4,45.4,0,0,0-4.23-8.13,27.49,27.49,0,0,0-7.29-7.74,15.11,15.11,0,0,0-4.42-2,9.1,9.1,0,0,0-1.15-.26,8.86,8.86,0,0,0-1.15-.17,7.56,7.56,0,0,0-1.18-.07h-1.34c-3.9,0-7.79-.08-11.69-.16-7.79-.13-15.57-.47-23.41-.94-5.59-.33-11.15-2.45-16.71-1.48-.46.08-.92.18-1.38.28-1,.22-1.92.48-2.86.77-2,.62-3.93,1.36-5.84,2.17s-3.7,1.64-5.52,2.52l-1.38.68c-4.44,2.22-8,6-12.44,8.07a105.06,105.06,0,0,0-11.48,6c-7.55,4.66-15.6,10.62-20.43,18.47-5.31,8.62-5.77,19.44-5.19,29.28a33.08,33.08,0,0,0,1.77,9.84c1.79.45,3.55.92,5.32,1.45A91.92,91.92,0,0,1,341.93,153.93ZM375,240.49c4.87,0,9-4.52,9-9.5a9.1,9.1,0,0,0-9-9H357.45l0,0v18.49l0,0Zm91.7,79.72c7.43-8.64,14.66-17.47,21.22-26.8,1-1.45,1.9-2.81,2.78-4.36s1.71-3.15,2.53-4.83c1.65-3.35,3.25-7,5.12-10.67.46-.92.95-1.86,1.46-2.78s1-1.86,1.56-2.74q1.59-2.65,3.29-5.24,3.42-5.15,7.27-9.94c1.28-1.59,2.59-3.16,3.93-4.69.68-.77,1.37-1.55,2-2.21l.47-.51.32-.45.66-.88a16.7,16.7,0,0,0,3.22-8.18,20.63,20.63,0,0,0-1.54-9.22,38.84,38.84,0,0,0-5.26-9.12,74.65,74.65,0,0,0-7.38-8.31,105.76,105.76,0,0,0-8.57-7.46c-1.49-1.18-3-2.33-4.56-3.43-.78-.55-1.56-1.1-2.34-1.62l-.58-.38a9.21,9.21,0,0,1-.79-.55,8.87,8.87,0,0,1-1.57-1.46l-.11-.13c-.23-.32-.45-.63-.65-1a8.19,8.19,0,0,1-.53-1.26,6.23,6.23,0,0,1-.16-2.7,8.66,8.66,0,0,1,1.77-3.86,22.77,22.77,0,0,1,4.91-4.46,61.94,61.94,0,0,1,10.23-5.69,1.3,1.3,0,0,0,.44-.29,8.31,8.31,0,0,0,1.77-3.25,26.15,26.15,0,0,0,1-5,50.51,50.51,0,0,0,.31-5.25l0-1.74a1.57,1.57,0,0,0-2.27-1.42,59.36,59.36,0,0,1-21.17,6,60.54,60.54,0,0,1-17.73-1,50.51,50.51,0,0,1-16.7-6.78c-.74-.48-1.48-1-2.19-1.51a1.58,1.58,0,0,0-2.26.43c-3.86,6.17-6.75,13.05-11.28,19.37a38.35,38.35,0,0,1-4.49,5.21,28.09,28.09,0,0,1-5.79,4.16,35.79,35.79,0,0,1-13.45,3.9,61.12,61.12,0,0,1-13.67-.28c-4.37-.54-8.74-1.26-13.08-2.2a120.32,120.32,0,0,1-25.4-8.47q-3.07-1.42-6.06-3c-1-.52-2-1.1-3-1.65l-1.39-.8-1.33-.74a77.65,77.65,0,0,0-10.82-5l-1.93-.67a.25.25,0,0,0-.31.11c-16.26,25.14-11.6,56.25-3.31,83.24,2.35,7.66,4.37,15.57,7.43,23V207.24A2.26,2.26,0,0,1,341,205h35.51a25.82,25.82,0,0,1,25.88,25.65c0,10.92-7.23,19.7-17.55,23.86,0,0,0,0,0,0l16.26,30.14a2.24,2.24,0,0,1-2,3.44H383.32a2.18,2.18,0,0,1-1.9-1.06s-15.79-31.46-15.81-31.47h-8.16l0,0v30.24a2.28,2.28,0,0,1-2.28,2.27h-7.08c18.45,26.76,45.36,48,76.16,57.58,1.4.44,11.3,2.35,12.67,1.81a19.87,19.87,0,0,0,4.5-2.17,101,101,0,0,0,10-8.08,113.64,113.64,0,0,0,8.61-9.35C462.26,325.34,464.49,322.78,466.7,320.21Zm-17.6-31a42.63,42.63,0,1,1,0-85.26c10,0,20.9,4.16,29,11.16a2.09,2.09,0,0,1,.24,3.21l-9.38,10a2.51,2.51,0,0,1-3.21.11c-4.51-4.15-9.74-5.7-15.56-5.7-11.75,0-21.45,9-23.13,20.46-2.49,16.93,13.55,30.32,30.2,26.4a25.42,25.42,0,0,0,3.61-1.13v-6.87l0,0h-7.46a2.16,2.16,0,0,1-2.26-2.14V247.63a2.28,2.28,0,0,1,2.28-2.27h23.85a2.23,2.23,0,0,1,2.14,2.25l.12,31.95a3,3,0,0,1-.95,1.9A60.09,60.09,0,0,1,449.1,289.17Zm123-79.33c-1.47-18.2-10.26-30.1-25.87-38.87a14,14,0,0,0-2.89-1.33,3.44,3.44,0,0,0-1.8,0c-.64.16-1.29.32-1.94.46s-1.06.23-1.65.32a4.77,4.77,0,0,1-1.6,0l-.66-.16-.54-.2a12.68,12.68,0,0,1-3.15-2c-.87-.72-1.66-1.47-2.42-2.23-1.51-1.52-2.9-3.1-4.24-4.7-2.6-3.13-5.33-6.65-7.69-10a.15.15,0,0,0-.22,0l-1,.9a49.8,49.8,0,0,1-5.57,4,.15.15,0,0,0-.08.16c.29,1.76.49,3.49.63,5.26a53.62,53.62,0,0,1,.16,5.54,28.58,28.58,0,0,1-.64,5.68,10.75,10.75,0,0,1-3,5.72l-.09.09-.33.18a61.7,61.7,0,0,0-9.38,6.25,17.64,17.64,0,0,0-3.5,3.69,3.2,3.2,0,0,0-.58,1.45c0,.25,0,.16.28.43a3.68,3.68,0,0,0,.57.41,4.67,4.67,0,0,0,.44.26l.68.37c.9.5,1.77,1,2.63,1.52,1.74,1,3.44,2.11,5.11,3.22a113.34,113.34,0,0,1,9.72,7.28,81.12,81.12,0,0,1,8.88,8.63,47.94,47.94,0,0,1,7.24,10.69,29.94,29.94,0,0,1,3.17,13.57c0,1.22-.18,2.44-.34,3.66h0l-.39,1.79a12.8,12.8,0,0,1-.48,1.77,29.43,29.43,0,0,1-3,6.56l-1,1.54-.51.76-.48.61c-.67.82-1.23,1.54-1.8,2.29-1.14,1.49-2.25,3-3.32,4.54q-3.23,4.61-6,9.46c-.92,1.61-1.8,3.25-2.64,4.9-.42.83-.82,1.65-1.19,2.45l-1.13,2.49c-1.48,3.38-2.86,7-4.46,10.78-.8,1.89-1.65,3.8-2.62,5.73s-2.08,3.91-3.22,5.74q-3.2,5.1-6.61,10.09c-2.27,3.32-4.64,6.61-7,9.82s-4.89,6.43-7.49,9.59a147.36,147.36,0,0,1-17.33,18.1c-1.65,1.17-1.38,2.35.82,2.13A98,98,0,0,0,481,349.16c47.61-10.07,77.78-56.12,87.86-101C571.69,235.65,573.16,222.7,572.13,209.84ZM246.64,141"/></svg>